<?xml version="1.0" encoding="UTF-8"?>
<svg width="385px" height="171px" viewBox="0 0 385 171" version="1.1" xmlns="http://www.w3.org/2000/svg" xmlns:xlink="http://www.w3.org/1999/xlink">
    <title>Artboard Copy 4</title>
    <g id="Artboard-Copy-4" stroke="none" stroke-width="1" fill="none" fill-rule="evenodd">
        <path d="M186.82411,88.625 C186.82411,88.625 109.91811,23.008 29.1681101,1.504 L29.3401101,1.313 C29.3401101,1.313 114.25111,14.167 197.64711,95.767 C198.19711,96.445 186.82411,88.625 186.82411,88.625" id="Fill-235" fill="#3065A1"></path>
        <path d="M192.00111,83.625 C191.75111,83.438 184.95911,81.25 184.48011,81.334 C184.00111,81.417 181.39711,88.417 181.39711,88.417 L192.25111,88.834 L192.00111,83.625" id="Fill-236" fill="#EFB786"></path>
        <path d="M199.29511,18.313 C199.29511,18.313 195.01211,28.438 195.26211,29.157 C195.51211,29.875 200.04311,30.097 200.04311,30.097 L199.29511,18.313" id="Fill-237" fill="#DA9976"></path>
        <path d="M199.32411,30.063 C199.32411,30.063 198.84111,33.813 198.66111,33.938 C198.48011,34.063 191.79311,41 191.824003,41.438 C191.85511,41.875 194.98011,41.438 194.98011,41.438 C194.98011,41.438 193.88711,44.344 194.04311,44.438 C194.19911,44.532 203.79311,42.875 203.79311,42.875 L207.91411,28.657 L199.32411,30.063" id="Fill-238" fill="#833227"></path>
        <path d="M200.66811,13.25 C200.66811,13.25 194.29311,10.438 194.76211,9.875 C195.23011,9.313 204.82411,4.532 207.07411,5.625 C209.32411,6.719 210.26211,16.688 210.26211,16.688 L200.66811,13.25" id="Fill-239" fill="#833227"></path>
        <path d="M200.66811,13.25 C200.66811,13.25 197.26211,20.688 199.32411,30.063 C202.88711,30.25 206.57411,29.594 206.57411,29.594 C206.57411,29.594 207.13711,16.032 206.79311,14.782 C206.44911,13.532 200.66811,13.25 200.66811,13.25" id="Fill-240" fill="#EFB786"></path>
        <path d="M208.66811,46.875 C208.66811,46.875 206.04311,46.75 205.91811,46.875 C205.79311,47 206.20911,44.542 206.20911,44.542 C206.20911,44.542 201.00111,43.875 201.042857,43.417 C201.08411,42.959 205.33411,22.75 205.25111,20.75 C205.16811,18.75 203.75111,2.84217094e-14 204.33411,2.84217094e-14 C204.91811,2.84217094e-14 234.75111,13.417 235.83411,14.834 C236.91811,16.25 244.41811,33 243.83411,33.417 C243.25111,33.834 235.00111,32.417 235.00111,32.417 C235.00111,32.417 237.04311,34.25 236.73011,34.563 C236.41811,34.875 228.79311,36 228.79311,36 C228.79311,36 245.66811,54.125 251.54311,67 C257.41811,79.875 261.54311,93.815 261.54311,93.815 L215.16811,91.584 L208.66811,46.875" id="Fill-241" fill="#ECAD2B"></path>
        <path d="M205.79311,90.25 C205.79311,90.25 209.79311,76.375 209.66811,75.5 C209.54311,74.625 205.98011,62.625 205.79311,61 C205.60511,59.375 207.91811,46.875 208.66811,46.875 C209.41811,46.875 210.33011,52.688 210.43711,52.5 C210.54311,52.313 217.10511,45.688 217.10511,45.688 C217.10511,45.688 223.29311,64.563 224.48011,67.5 C225.66811,70.438 239.23011,67.5 239.35511,67.969 C239.48011,68.438 232.54311,73.75 232.54311,73.75 C232.54311,73.75 237.04311,74.688 236.54311,75.563 C236.04311,76.438 233.35511,77.75 233.35511,77.75 L236.85511,88.813 L205.79311,90.25" id="Fill-242" fill="#C47630"></path>
        <path d="M188.83411,91.084 C188.83411,91.084 191.91811,82.834 192.25111,82.834 C192.58411,82.834 212.50111,88.75 213.08411,88.667 C213.66811,88.584 211.75111,62.667 211.33411,61.584 C210.91811,60.5 216.50111,44.084 218.00111,43.9997751 C219.50111,43.917 231.66811,66.834 232.00111,69.167 C232.33411,71.5 230.33411,91.584 230.33411,91.584 L188.83411,91.084" id="Fill-243" fill="#ECAD2B"></path>
        <path d="M195.54311,88.813 C195.54311,88.719 196.66111,84.073 196.66111,84.073 C196.66111,84.073 191.94911,82.563 191.76211,82.563 C191.57411,82.563 189.19911,88.813 189.19911,88.813 L195.54311,88.813" id="Fill-244" fill="#776D2F"></path>
        <polyline id="Fill-245" fill="#343B38" points="363.25111 84.731 364.41811 139.524 355.25111 139.524 353.41811 86.106 363.25111 84.731"></polyline>
        <path d="M326.83411,93.815 C326.83411,93.565 334.33411,72.815 335.33411,70.815 C336.33411,68.815 370.08411,67.231 372.00111,69.815 C373.91811,72.398 371.91811,85.338 372.00111,86.701 C372.08411,88.065 359.75111,88.481 359.75111,88.481 L326.83411,93.815" id="Fill-246" fill="#46514D"></path>
        <path d="M84.9451101,86.701 L359.75111,88.481 L355.25111,139.524 L119.71111,141.248 C119.71111,141.248 89.3891101,104.921 84.9451101,86.701" id="Fill-247" fill="#E9DDCF"></path>
        <path d="M96.3441101,109.582 L357.59411,112.945 L355.25111,139.524 L119.71111,141.248 C119.71111,141.248 106.51111,128.559 96.3441101,109.582" id="Fill-248" fill="#409E7D"></path>
        <path d="M119.71111,141.248 L355.25111,139.524 L356.08111,130.106 C356.08111,130.106 138.67211,103.766 119.71111,141.248" id="Fill-249" fill="#156E52"></path>
        <path d="M149.00411,87.116 C149.00411,87.116 158.50111,105.606 163.25111,104.356 C168.00111,103.106 172.87611,91.106 173.87611,91.231 C174.87611,91.356 175.62611,97.106 179.50111,93.981 C183.37611,90.856 183.87911,87.342 183.87911,87.342 L149.00411,87.116" id="Fill-250" fill="#BFA094"></path>
        <path d="M262.37711,87.851 C262.37711,87.851 265.87611,104.981 269.87611,103.731 C273.87611,102.481 277.12611,94.606 277.12611,94.606 C277.12611,94.606 277.62611,101.856 282.25111,99.731 C286.87611,97.606 288.75111,90.481 288.75111,90.481 C288.75111,90.481 303.37611,108.481 306.50111,105.481 C309.62611,102.481 311.12611,91.231 311.12611,91.231 C311.12611,91.231 316.50111,94.106 317.62611,91.481 C318.75111,88.856 318.75011,88.216 318.75011,88.216 L262.37711,87.851" id="Fill-251" fill="#BFA094"></path>
        <path d="M227.70911,36 C227.70911,36 214.37211,39.401 211.20911,43.125 C211.37611,41 214.66811,37.25 214.66811,37.25 C214.66811,37.25 208.04311,38.959 207.91811,38.5 C207.79311,38.042 210.91811,32.375 215.33411,31.125 C219.75111,29.875 228.25711,35.856 227.70911,36" id="Fill-252" fill="#C47630"></path>
        <path d="M203.79311,16.521 C203.79311,16.521 200.23011,15.542 199.87611,15.896 C199.52211,16.25 199.75111,17.98 199.87611,18.125 C200.00111,18.271 203.77211,17.896 203.79311,17.792 C203.81411,17.688 203.79311,16.521 203.79311,16.521" id="Fill-253" fill="#833227"></path>
        <path d="M201.74511,21.938 C201.74511,22.904 201.42711,23.688 201.03411,23.688 C200.64211,23.688 200.32411,22.904 200.32411,21.938 C200.32411,20.971 200.64211,20.188 201.03411,20.188 C201.42711,20.188 201.74511,20.971 201.74511,21.938" id="Fill-254" fill="#0C0E0F"></path>
        <path d="M201.08511,33.554 C200.94211,33.1 200.46511,32.81 200.15711,32.461 C199.71611,31.961 199.03611,32.719 199.39611,33.191 C199.71311,33.606 200.09511,34.189 200.65511,34.233 C201.00211,34.26 201.17111,33.831 201.08511,33.554" id="Fill-255" fill="#EFB786"></path>
        <path d="M10.4181101,141.248 L384.41811,139.524 L349.83511,145.624 C349.83511,145.624 364.08411,153.5 359.75111,156 C355.41811,158.5 237.89611,158 237.89611,158 C237.89611,158 271.41811,168 268.41811,170 C265.41811,172 75.9181101,170.5 71.4181101,167.5 C66.9181101,164.5 109.41811,159.5 109.41811,159.5 C109.41811,159.5 -40.0818899,143.997 10.4181101,141.248" id="Fill-256" fill="#0071BC"></path>
        <path d="M364.41811,139.524 L53.5871101,141.049 L133.91811,147.5 C133.91811,147.5 115.58411,149.167 121.91811,152.834 C128.25111,156.5 270.91811,154.417 276.91811,152.834 C282.91811,151.25 268.91811,148.5 268.91811,148.5 C268.91811,148.5 354.41811,147.297 364.41811,139.524" id="Fill-257" fill="#024979"></path>
        <path d="M30.4651101,1.504 C30.4651101,1.504 52.9181101,139.524 10.4181101,141.248 C41.5841101,147.199 54.6801101,76.175 30.4651101,1.504" id="Fill-258" fill="#F6F1E4"></path>
        <path d="M9.18311007,141.391 C9.18311007,141.391 9.18311007,138.641 10.0121101,138.875 C10.8401101,139.11 10.6831101,141.297 10.6831101,141.297 L9.18311007,141.391" id="Fill-259" fill="#DC484D"></path>
        <path d="M40.5741101,4.773 C40.0401101,5.213 39.4091101,6.09 39.8981101,6.75 C39.9871101,6.869 40.1541101,6.902 40.2811101,6.825 C40.6951101,6.575 40.7491101,6.107 41.1401101,5.836 C41.8331101,5.356 41.3191101,4.159 40.5741101,4.773" id="Fill-260" fill="#DC484D"></path>
        <path d="M66.3261101,13.134 C65.9601101,12.866 65.4501101,13.13 65.3271101,13.54 C65.2181101,13.906 65.0131101,14.246 64.8831101,14.608 C64.7511101,14.976 64.6581101,15.352 64.5721101,15.733 C64.4981101,16.063 64.7631101,16.422 65.0961101,16.44 C65.4861101,16.461 65.7031101,16.095 65.7771101,15.77 C65.8751101,15.337 66.0161101,14.641 66.3131101,14.293 C66.5771101,13.984 66.7191101,13.421 66.3261101,13.134" id="Fill-261" fill="#DC484D"></path>
        <path d="M89.1911101,23.765 C88.9081101,24.049 88.7881101,24.493 88.6431101,24.857 C88.4721101,25.285 88.2571101,25.691 88.2991101,26.16 C88.3361101,26.561 88.7431101,26.63 89.0171101,26.417 C89.2901101,26.204 89.3911101,25.901 89.5361101,25.594 C89.6071101,25.446 89.6771101,25.297 89.7451101,25.148 L89.8741101,24.932 C90.0601101,24.866 90.2141101,24.706 90.2921101,24.518 C90.6121101,23.755 89.7811101,23.172 89.1911101,23.765" id="Fill-262" fill="#DC484D"></path>
        <path d="M115.40611,36.261 C115.33211,36.029 115.10711,35.953 114.89011,35.982 C114.27011,36.068 114.02611,36.855 113.75911,37.339 C113.42111,37.951 113.08711,38.563 112.77111,39.187 C112.43811,39.844 113.16711,40.569 113.63911,39.858 C114.04411,39.249 114.42711,38.629 114.81011,38.006 C115.15111,37.45 115.62111,36.941 115.40611,36.261" id="Fill-263" fill="#DC484D"></path>
        <path d="M139.02011,51.465 C138.59111,51.968 138.17611,52.475 137.69211,52.929 C137.33811,53.261 136.73811,53.575 136.56411,54.053 L136.53111,54.08 C136.19711,54.349 136.45411,54.964 136.88511,54.774 C137.01011,54.808 137.13911,54.811 137.26211,54.74 C138.27811,54.162 139.21711,53.323 139.88011,52.358 C140.27911,51.777 139.56711,50.822 139.02011,51.465" id="Fill-264" fill="#DC484D"></path>
        <path d="M162.35211,66.181 C161.71111,66.552 161.31811,67.335 160.90111,67.931 C160.40411,68.643 159.94811,69.373 159.48811,70.108 C159.26511,70.464 159.66711,71.051 160.01411,70.655 C160.54511,70.048 161.07711,69.45 161.57711,68.817 C162.06011,68.207 162.75111,67.559 162.95511,66.799 C163.05511,66.429 162.78511,65.931 162.35211,66.181" id="Fill-265" fill="#DC484D"></path>
        <path d="M177.43411,79.727 C177.29611,79.375 176.89711,79.328 176.63211,79.57 C176.26111,79.909 176.20711,80.461 176.01311,80.909 C175.81711,81.362 175.53911,81.78 175.24411,82.174 C174.85811,82.689 175.50511,83.521 176.01511,82.975 C176.43611,82.523 176.77811,82.034 177.05311,81.481 C177.30811,80.965 177.66111,80.301 177.43411,79.727" id="Fill-266" fill="#DC484D"></path>
    </g>
</svg>