<?xml version="1.0" encoding="UTF-8"?>
<svg width="347px" height="173px" viewBox="0 0 347 173" version="1.1" xmlns="http://www.w3.org/2000/svg" xmlns:xlink="http://www.w3.org/1999/xlink">
    <title>Artboard Copy 3</title>
    <g id="Artboard-Copy-3" stroke="none" stroke-width="1" fill="none" fill-rule="evenodd">
        <path d="M70.752104,136.796464 C70.752104,136.796464 3.75610401,133.372464 0.143104012,138.521464 C-3.46989599,143.671464 62.530104,150.379464 62.530104,150.379464 C62.530104,150.379464 26.438104,159.337464 29.484104,162.337464 C32.530104,165.337464 172.733104,175.643464 183.465104,171.990464 C194.197104,168.337464 179.259104,158.337464 179.259104,158.337464 C179.259104,158.337464 335.218104,167.671464 346.968104,138.521464 C339.808104,131.885464 282.361104,132.088464 282.361104,132.088464 L70.752104,136.796464" id="Fill-114" fill="#0071BC"></path>
        <path d="M45.990104,138.521464 L31.197104,138.085464 C31.197104,138.085464 52.530104,147.001464 126.530104,149.502464 C200.530104,152.004464 304.489104,137.046464 304.489104,137.046464 L290.697104,136.796464 L45.990104,138.521464" id="Fill-115" fill="#024979"></path>
        <polyline id="Fill-116" fill="#343B38" points="289.530104 82.0044644 290.697104 136.796464 281.530104 136.796464 279.697104 83.3794644 289.530104 82.0044644"></polyline>
        <path d="M253.113104,91.0874644 C253.113104,90.8374644 260.613104,70.0874644 261.613104,68.0874644 C262.613104,66.0874644 296.363104,64.5044644 298.280104,67.0874644 C300.197104,69.6714644 298.197104,82.6104644 298.280104,83.9744644 C298.363104,85.3374644 286.030104,85.7544644 286.030104,85.7544644 L253.113104,91.0874644" id="Fill-117" fill="#46514D"></path>
        <path d="M11.224104,83.9744644 L286.030104,85.7544644 L281.530104,136.796464 L45.990104,138.521464 C45.990104,138.521464 15.668104,102.194464 11.224104,83.9744644" id="Fill-118" fill="#E9DDCF"></path>
        <path d="M22.623104,106.854464 L283.873104,110.218464 L281.530104,136.796464 L45.990104,138.521464 C45.990104,138.521464 32.790104,125.831464 22.623104,106.854464" id="Fill-119" fill="#409E7D"></path>
        <path d="M45.990104,138.521464 L281.530104,136.796464 L282.361104,127.379464 C282.361104,127.379464 64.951104,101.038464 45.990104,138.521464" id="Fill-120" fill="#156E52"></path>
        <path d="M75.283104,84.3894644 C75.283104,84.3894644 84.780104,102.879464 89.530104,101.629464 C94.280104,100.379464 99.155104,88.3794644 100.155104,88.5044644 C101.155104,88.6294644 101.905104,94.3794644 105.780104,91.2544644 C109.655104,88.1294644 110.158104,84.6154644 110.158104,84.6154644 L75.283104,84.3894644" id="Fill-121" fill="#BFA094"></path>
        <path d="M188.656104,85.1234644 C188.656104,85.1234644 192.155104,102.254464 196.155104,101.004464 C200.155104,99.7544644 203.405104,91.8794644 203.405104,91.8794644 C203.405104,91.8794644 203.905104,99.1294644 208.530104,97.0044644 C213.155104,94.8794644 215.030104,87.7544644 215.030104,87.7544644 C215.030104,87.7544644 229.655104,105.754464 232.780104,102.754464 C235.905104,99.7544644 237.405104,88.5044644 237.405104,88.5044644 C237.405104,88.5044644 242.780104,91.3794644 243.905104,88.7544644 C245.030104,86.1294644 245.029104,85.4884644 245.029104,85.4884644 L188.656104,85.1234644" id="Fill-122" fill="#BFA094"></path>
        <path d="M282.361104,154.754464 L144.655104,154.754464 C144.655104,154.489464 151.406104,152.243464 159.560104,149.603464 C193.022104,148.843464 228.400104,145.826464 255.825104,142.940464 C268.635104,148.748464 282.361104,154.754464 282.361104,154.754464 M190.669104,137.501464 C190.679104,137.488464 190.689104,137.475464 190.699104,137.461464 L243.121104,137.077464 C243.159104,137.095464 243.196104,137.113464 243.234104,137.131464 L190.669104,137.501464" id="Fill-123" fill="#92C4B9"></path>
        <path d="M159.560104,149.603464 C170.625104,146.020464 184.276104,141.708464 187.155104,140.629464 C188.343104,140.184464 189.538104,139.019464 190.669104,137.501464 L243.234104,137.131464 C246.886104,138.860464 251.298104,140.887464 255.825104,142.940464 C228.400104,145.826464 193.022104,148.843464 159.560104,149.603464" id="Fill-124" fill="#80A7A2"></path>
        <path d="M225.150104,121.927464 C222.798104,121.748464 220.395104,121.570464 217.959104,121.396464 C219.084104,117.835464 219.155104,114.004464 219.155104,114.004464 L222.030104,115.697464 C222.030104,115.697464 223.119104,118.471464 225.150104,121.927464" id="Fill-125" fill="#97B4D4"></path>
        <path d="M190.699104,137.461464 C194.317104,132.585464 197.280104,124.129464 197.280104,124.129464 L200.882104,120.280464 C200.905104,120.320464 204.925104,127.254464 211.905104,127.379464 C211.938104,127.380464 211.969104,127.380464 212.001104,127.380464 C215.212104,127.379464 216.983104,124.490464 217.959104,121.396464 C220.395104,121.570464 222.798104,121.748464 225.150104,121.927464 C227.525104,125.969464 231.188104,130.943464 235.905104,133.504464 C237.491104,134.365464 240.029104,135.612464 243.121104,137.077464 L190.699104,137.461464" id="Fill-126" fill="#8DA8C3"></path>
        <path d="M177.836104,59.2934644 C177.836104,59.2934644 194.251104,78.6294644 195.266104,80.1294644 C196.280104,81.6294644 204.898104,109.201464 205.713104,109.212464 C206.527104,109.222464 223.276104,111.054464 223.905104,110.254464 C224.534104,109.454464 212.280104,82.1294644 210.655104,79.6294644 C209.030104,77.1294644 183.265104,49.6484644 183.265104,49.6484644 L177.836104,59.2934644" id="Fill-127" fill="#ECAD2B"></path>
        <path d="M185.780104,1.00446436 C185.780104,1.00446436 148.863104,9.42146436 148.030104,14.3374644 C147.197104,19.2544644 156.363104,29.0204644 156.363104,29.0204644 C156.363104,29.0204644 125.655104,40.6524644 114.154389,84.6414644 C113.905104,84.6394644 179.259104,85.0624644 179.259104,85.0624644 C179.259104,85.0624644 177.113104,74.4214644 176.197104,72.0874644 C175.280104,69.7544644 180.363104,56.0874644 180.363104,56.0874644 C180.363104,56.0874644 196.350104,47.9244644 196.280333,47.4214644 C196.211104,46.9174644 181.780104,31.5664644 181.780104,31.5664644 L185.780104,1.00446436" id="Fill-128" fill="#ECAD2B"></path>
        <path d="M185.780104,1.00446436 C185.780104,1.00446436 169.613104,21.8664644 168.947104,25.1014644 C168.280104,28.3374644 172.188104,50.2544644 172.276104,50.5874644 C172.363104,50.9214644 196.113104,48.5044644 196.280104,47.4214644 C196.447104,46.3374644 190.968104,33.0874644 190.968104,33.0874644 L193.363104,11.0874644 C193.363104,11.0874644 186.613104,0.754464357 185.780104,1.00446436" id="Fill-129" fill="#B34D2E"></path>
        <path d="M193.613104,28.0044644 C193.613104,28.0044644 192.530104,42.7544644 192.488104,42.8794644 C192.447104,43.0044644 194.238104,48.4624644 193.613104,48.4624644 C192.988104,48.4624644 188.797104,45.5044644 188.797104,45.5044644 C188.797104,45.5044644 190.072104,49.0044644 189.155104,48.4624644 C188.238104,47.9214644 185.409104,46.2964644 185.409104,46.2964644 C185.409104,46.2964644 184.822104,47.6294644 184.322104,47.7544644 C183.822104,47.8794644 172.405104,41.4214644 172.280104,39.8794644 C172.155104,38.3374644 174.613104,20.0044644 175.530104,17.3794644 C176.447104,14.7544644 182.413104,8.12946436 183.013104,7.83746436 C183.613104,7.54646436 202.488104,11.8374644 202.863104,12.5464644 C203.238104,13.2544644 196.405104,16.0044644 196.530104,16.0044644 C196.655104,16.0044644 202.572104,16.4214644 202.113104,17.2964644 C201.655104,18.1714644 195.266104,20.0044644 195.266104,20.0044644 L193.613104,28.0044644" id="Fill-130" fill="#833227"></path>
        <path d="M179.988104,23.0874644 C179.988104,23.0874644 176.780104,36.9624644 178.197104,37.0874644 C179.613104,37.2124644 193.197104,34.2124644 193.197104,34.2124644 C193.197104,34.2124644 195.251104,20.5874644 195.266114,20.0044644 C195.280104,19.4214644 180.246104,21.9414644 179.988104,23.0874644" id="Fill-131" fill="#EFB786"></path>
        <path d="M184.124104,30.1454644 C184.124104,30.9304644 183.739104,31.5664644 183.265104,31.5664644 C182.790104,31.5664644 182.405104,30.9304644 182.405104,30.1454644 C182.405104,29.3594644 182.790104,28.7234644 183.265104,28.7234644 C183.739104,28.7234644 184.124104,29.3594644 184.124104,30.1454644" id="Fill-132" fill="#0C0E0F"></path>
        <path d="M192.686104,29.0204644 C192.686104,29.8054644 192.302104,30.4414644 191.827104,30.4414644 C191.352104,30.4414644 190.968104,29.8054644 190.968104,29.0204644 C190.968104,28.2344644 191.352104,27.5984644 191.827104,27.5984644 C192.302104,27.5984644 192.686104,28.2344644 192.686104,29.0204644" id="Fill-133" fill="#0C0E0F"></path>
        <path d="M189.218104,26.1084644 C189.218104,26.1084644 190.322104,35.5254644 190.093104,35.7754644 C189.863104,36.0254644 187.697104,34.7544644 187.488104,34.0254644 C187.280104,33.2964644 188.905104,25.0874644 189.218104,26.1084644" id="Fill-134" fill="#DA9976"></path>
        <path d="M182.238104,32.7964644 C182.238104,32.7964644 183.843104,32.5254644 184.655104,31.4004644 C184.988104,33.4004644 182.947104,34.1084644 182.238104,32.7964644" id="Fill-135" fill="#DA9976"></path>
        <path d="M190.363104,30.1454644 C190.363104,30.1454644 190.988104,31.6504644 192.322104,31.5664644 C191.259104,32.7754644 190.280104,31.6814644 190.363104,30.1454644" id="Fill-136" fill="#DA9976"></path>
        <path d="M182.551104,26.1504644 C182.551104,26.1504644 186.384104,24.9834644 187.259104,24.9834644 C188.134104,24.9834644 187.905104,23.1294644 187.634104,22.8164644 C187.363104,22.5044644 182.572104,23.3164644 182.551104,26.1504644" id="Fill-137" fill="#833227"></path>
        <path d="M190.124104,22.9834644 C190.124104,22.9834644 189.988104,24.5044644 190.468104,24.7124644 C190.947104,24.9214644 195.155104,25.4004644 195.259104,24.8374644 C195.363104,24.2754644 194.228104,22.2334644 190.124104,22.9834644" id="Fill-138" fill="#833227"></path>
        <path d="M184.884104,39.1144644 C184.088104,39.5484644 183.577104,40.2514644 182.643104,40.4674644 C181.481104,40.7364644 180.320104,40.2844644 179.969104,39.0944644 C179.834104,38.6344644 179.180104,38.9844644 179.267104,39.3854644 C179.919104,42.3934644 184.264104,42.2504644 185.377104,39.6194644 C185.510104,39.3044644 185.210104,38.9354644 184.884104,39.1144644" id="Fill-139" fill="#EFB786"></path>
        <path d="M188.797104,51.7054644 C188.797104,51.7054644 169.030104,55.6714644 167.780104,55.6714644 C166.530104,55.6714644 160.363104,33.4624644 160.363104,33.4624644 C160.363104,33.4624644 158.363104,46.5874644 158.363104,46.3374644 C158.363104,46.0874644 153.447104,37.6714644 152.863104,37.5874644 C152.280104,37.5044644 149.613104,66.5044644 149.613104,66.5044644 L131.697104,84.7124644 L179.613104,85.1234644 L178.405104,73.8164644 C178.405104,73.8164644 179.843104,71.6914644 180.155104,71.1294644 C180.468104,70.5664644 178.280104,67.6914644 178.280104,67.6914644 L188.797104,51.7054644" id="Fill-140" fill="#C47630"></path>
        <path d="M152.344104,40.2464644 C152.344104,40.2464644 176.016104,89.0744644 177.836104,93.0394644 C179.655104,97.0044644 202.727104,110.129464 202.878104,113.254464 C203.030104,116.379464 188.535104,128.654464 187.470104,128.454464 C186.405104,128.254464 164.530104,106.004464 161.905104,103.879464 C159.280104,101.754464 140.530104,65.2544644 139.280104,62.1294644 C138.030104,59.0044644 142.697104,41.6174644 152.344104,40.2464644" id="Fill-141" fill="#ECAD2B"></path>
        <path d="M198.905104,113.421464 C198.905104,113.421464 205.072104,116.894464 205.572104,118.387464 C206.072104,119.879464 205.113104,126.337464 204.697104,126.504464 C204.280104,126.671464 198.238104,125.962464 197.613104,125.671464 C196.988104,125.379464 193.238104,121.796464 193.238104,121.796464 L198.905104,113.421464" id="Fill-142" fill="#EFB786"></path>
        <path d="M214.324104,109.991464 C214.324104,109.991464 214.572104,114.587464 215.030104,115.629464 C215.488104,116.671464 221.072104,121.796464 221.988104,121.379464 C222.905104,120.962464 225.613104,116.171464 225.363104,115.629464 C225.113104,115.087464 222.822104,110.337464 222.822104,110.337464 L214.324104,109.991464" id="Fill-143" fill="#EFB786"></path>
        <path d="M197.655104,107.816464 C197.655104,107.816464 180.280104,123.566464 180.593104,124.129464 C180.905104,124.691464 187.968104,129.816464 188.405104,129.816464 C188.843104,129.816464 203.905104,113.879464 203.843295,113.316464 C203.780104,112.754464 197.655104,107.816464 197.655104,107.816464" id="Fill-144" fill="#776D2F"></path>
        <path d="M203.618104,104.142464 C203.618104,104.142464 205.030104,109.908464 205.530104,110.456464 C206.030104,111.004464 225.030104,112.379464 225.030104,111.629464 C225.030104,110.879464 221.351104,103.091464 221.351104,103.091464 L203.618104,104.142464" id="Fill-145" fill="#776D2F"></path>
        <path d="M180.954104,49.9034644 C180.954104,49.9034644 175.613104,57.5044644 175.822104,58.0044644 C176.030104,58.5044644 183.613104,55.3374644 184.405104,54.6714644 C185.197104,54.0044644 191.055104,48.6434644 190.904104,48.6653968 C190.753104,48.6884644 180.954104,49.9034644 180.954104,49.9034644" id="Fill-146" fill="#F2D243"></path>
        <path d="M228.387104,139.785464 C226.562104,139.218464 224.761104,138.552464 222.980104,137.686464 C222.867104,137.631464 222.757104,137.569464 222.643104,137.513464 C223.631104,136.556464 224.612104,135.592464 225.588104,134.623464 C227.158104,135.545464 228.746104,136.438464 230.352104,137.285464 C229.683104,138.106464 229.033104,138.943464 228.387104,139.785464 Z M226.480104,142.136464 C226.343104,142.290464 226.194104,142.432464 226.054104,142.583464 C223.986104,141.803464 221.904104,141.057464 219.866104,140.191464 C220.490104,139.593464 221.114104,138.995464 221.736104,138.395464 C223.592104,139.393464 225.514104,140.252464 227.474104,140.942464 C227.149104,141.345464 226.824104,141.749464 226.480104,142.136464 Z M224.288104,144.440464 C222.153104,143.723464 220.052104,142.930464 217.988104,141.996464 C218.281104,141.714464 218.574104,141.432464 218.868104,141.151464 C220.903104,142.105464 223.007104,142.909464 225.123104,143.562464 C224.842104,143.852464 224.572104,144.153464 224.288104,144.440464 Z M217.100104,141.582464 C216.174104,141.143464 215.251104,140.684464 214.339104,140.181464 C214.205104,140.108464 214.075104,140.028464 213.942104,139.953464 C214.227104,139.627464 214.497104,139.289464 214.779104,138.960464 C215.814104,139.596464 216.881104,140.187464 217.974104,140.730464 C217.685104,141.017464 217.387104,141.293464 217.100104,141.582464 Z M213.461104,145.334464 C212.483104,144.792464 211.518104,144.246464 210.577104,143.688464 C211.427104,142.756464 212.283104,141.830464 213.120104,140.884464 C214.113104,141.472464 215.127104,142.020464 216.150104,142.550464 C215.245104,143.472464 214.353104,144.403464 213.461104,145.334464 Z M209.491104,149.502464 C208.524104,149.012464 207.576104,148.492464 206.650104,147.934464 C207.660104,146.852464 208.669104,145.775464 209.678104,144.679464 C210.659104,145.224464 211.663104,145.711464 212.686104,146.136464 C211.614104,147.259464 210.551104,148.383464 209.491104,149.502464 Z M202.281104,144.951464 C203.544104,144.138464 204.723104,143.210464 205.844104,142.200464 C206.869104,142.956464 207.926104,143.659464 209.013104,144.297464 C208.047104,145.407464 207.065104,146.506464 206.073104,147.597464 C204.766104,146.784464 203.508104,145.890464 202.281104,144.951464 Z M208.868104,139.288464 C209.089104,139.066464 209.317104,138.841464 209.542104,138.618464 C210.456104,139.247464 211.391104,139.845464 212.337104,140.425464 C211.530104,141.380464 210.709104,142.325464 209.892104,143.273464 C208.844104,142.638464 207.823104,141.980464 206.823104,141.299464 C207.513104,140.643464 208.191104,139.969464 208.868104,139.288464 Z M211.499104,136.683464 C212.300104,137.311464 213.138104,137.898464 213.998104,138.456464 C213.709104,138.800464 213.420104,139.144464 213.131104,139.488464 C212.198104,138.947464 211.272104,138.391464 210.364104,137.804464 C210.740104,137.434464 211.120104,137.057464 211.499104,136.683464 Z M214.536104,133.615464 C215.238104,134.175464 215.954104,134.725464 216.693104,135.252464 C216.041104,136.026464 215.390104,136.801464 214.739104,137.576464 C213.891104,137.058464 213.062104,136.513464 212.268104,135.924464 C213.032104,135.165464 213.793104,134.398464 214.536104,133.615464 Z M217.807104,129.836464 C218.565104,130.316464 219.327104,130.796464 220.095104,131.278464 C219.191104,132.324464 218.285104,133.369464 217.392104,134.424464 C216.661104,133.922464 215.946104,133.397464 215.246104,132.853464 C216.147104,131.873464 217.010104,130.870464 217.807104,129.836464 Z M220.867104,137.905464 C220.217104,138.521464 219.584104,139.158464 218.942104,139.785464 C218.226104,139.463464 217.514104,139.129464 216.814104,138.762464 C216.384104,138.536464 215.962104,138.297464 215.542104,138.055464 C216.183104,137.297464 216.836104,136.547464 217.461104,135.778464 C218.564104,136.533464 219.701104,137.244464 220.867104,137.905464 Z M224.931104,134.238464 C223.862104,135.158464 222.806104,136.098464 221.767104,137.062464 C220.526104,136.409464 219.318104,135.699464 218.148104,134.932464 C219.014104,133.848464 219.850104,132.747464 220.669104,131.636464 C222.074104,132.514464 223.494104,133.385464 224.931104,134.238464 Z M238.122104,140.042464 C235.994104,138.827464 233.843104,137.665464 231.688104,136.513464 L231.793104,136.326464 C231.911104,136.100464 231.693104,135.713464 231.454104,135.974464 C231.371104,136.066464 231.297104,136.167464 231.214104,136.260464 C229.581104,135.388464 227.949104,134.517464 226.321104,133.637464 C226.281104,133.449464 226.113104,133.315464 225.911104,133.416464 C224.353104,132.570464 222.803104,131.707464 221.265104,130.820464 C221.423104,130.601464 221.587104,130.387464 221.742104,130.168464 C221.916104,129.921464 221.613104,129.518464 221.376104,129.787464 C221.163104,130.029464 220.958104,130.277464 220.747104,130.519464 C219.946104,130.053464 219.151104,129.576464 218.359104,129.090464 C218.490104,128.910464 218.625104,128.733464 218.750104,128.551464 C218.925104,128.298464 218.650104,127.944464 218.389104,128.176464 C218.185104,128.356464 217.994104,128.558464 217.794104,128.744464 C217.614104,128.632464 217.431104,128.526464 217.251104,128.413464 C216.802104,128.129464 216.341104,128.907464 216.760104,129.173464 C216.876104,129.247464 216.995104,129.322464 217.112104,129.396464 C216.193104,130.294464 215.292104,131.224464 214.416104,132.199464 C212.943104,130.999464 211.542104,129.708464 210.224104,128.329464 C209.788104,127.873464 209.115104,128.617464 209.502104,129.023464 C210.794104,130.382464 212.213104,131.708464 213.729104,132.969464 C213.020104,133.774464 212.316104,134.589464 211.609104,135.405464 C209.471104,133.725464 207.561104,131.773464 206.008104,129.486464 C205.689104,129.016464 205.090104,129.691464 205.362104,130.107464 C206.867104,132.414464 208.766104,134.433464 210.913104,136.200464 C210.551104,136.615464 210.191104,137.032464 209.825104,137.442464 C206.166104,135.023464 202.728104,132.239464 199.642104,129.154464 C199.355104,128.867464 198.906104,129.471464 199.160104,129.739464 C202.116104,132.860464 205.455104,135.748464 209.065104,138.280464 C208.199104,139.224464 207.309104,140.136464 206.387104,141.004464 C203.296104,138.855464 200.436104,136.417464 197.848104,133.324464 C197.497104,132.904464 196.915104,133.549464 197.224104,133.924464 C199.563104,136.762464 202.336104,139.549464 205.420104,141.885464 C204.280104,142.884464 203.070104,143.784464 201.784104,144.574464 C201.606104,144.434464 201.422104,144.306464 201.246104,144.164464 C200.850104,143.845464 200.406104,144.593464 200.775104,144.892464 L200.981104,145.055464 C200.361104,145.400464 199.725104,145.722464 199.060104,146.002464 C198.785104,146.119464 198.878104,146.709464 199.199104,146.580464 C199.999104,146.258464 200.747104,145.866464 201.473104,145.445464 C202.719104,146.425464 204.045104,147.385464 205.437104,148.292464 C205.150104,148.604464 204.869104,148.920464 204.578104,149.229464 C204.297104,149.530464 204.633104,150.099464 204.957104,149.755464 C205.300104,149.388464 205.646104,149.012464 205.990104,148.644464 C210.625104,151.579464 215.911104,153.884464 221.143104,154.320464 C221.451104,154.346464 221.599104,153.796464 221.289104,153.696464 C217.833104,152.574464 214.363104,151.794464 211.034104,150.272464 C210.717104,150.127464 210.412104,149.958464 210.099104,149.805464 C211.196104,148.668464 212.304104,147.543464 213.427104,146.434464 C213.919104,146.621464 214.414104,146.797464 214.915104,146.953464 C215.315104,147.077464 215.506104,146.456464 215.160104,146.269464 C214.822104,146.086464 214.495104,145.902464 214.160104,145.719464 C215.097104,144.801464 216.034104,143.884464 216.979104,142.974464 C218.980104,143.970464 221.036104,144.841464 223.131104,145.583464 C222.375104,146.310464 221.615104,147.032464 220.826104,147.726464 C220.530104,147.987464 220.846104,148.515464 221.184104,148.223464 C222.061104,147.467464 222.965104,146.670464 223.867104,145.844464 C226.301104,146.665464 228.788104,147.301464 231.310104,147.716464 C231.854104,147.805464 232.126104,146.751464 231.571104,146.603464 C229.368104,146.015464 227.207104,145.394464 225.079104,144.702464 C225.381104,144.412464 225.673104,144.108464 225.970104,143.811464 C227.376104,144.218464 228.782104,144.569464 230.170104,144.850464 C230.464104,144.910464 230.640104,144.465464 230.354104,144.335464 C229.210104,143.814464 228.046104,143.344464 226.875104,142.894464 C227.388104,142.352464 227.892104,141.802464 228.374104,141.239464 C231.081104,142.111464 233.850104,142.656464 236.614104,142.746464 C236.993104,142.759464 237.215104,142.049464 236.800104,141.949464 C234.260104,141.339464 231.775104,140.780464 229.332104,140.069464 C229.950104,139.279464 230.520104,138.468464 231.035104,137.639464 C233.251104,138.786464 235.495104,139.848464 237.773104,140.748464 C238.137104,140.892464 238.458104,140.233464 238.122104,140.042464 L238.122104,140.042464 Z" id="Fill-147" fill="#FFFFFE"></path>
        <path d="M168.077104,145.541464 C167.301104,144.754464 166.405104,143.835464 165.428104,143.302464 C164.572104,142.835464 163.700104,143.398464 163.747104,144.381464 C163.796104,145.379464 164.311104,146.190464 165.029104,146.809464 C165.625104,147.751464 166.495104,148.505464 167.585104,148.913464 C168.365104,149.206464 169.333104,149.173464 169.506104,148.158464 C169.685104,147.114464 168.732104,146.204464 168.077104,145.541464" id="Fill-148" fill="#DC474C"></path>
        <path d="M187.426104,139.981464 C186.457104,138.919464 185.350104,138.039464 184.092104,137.341464 C183.387104,136.949464 182.476104,137.767464 182.854104,138.534464 L182.902104,138.626464 C182.695104,138.828464 182.591104,139.140464 182.718104,139.437464 C183.272104,140.722464 184.241104,141.833464 185.351104,142.676464 C186.170104,143.297464 187.981104,144.369464 188.786104,143.147464 C189.491104,142.079464 188.076104,140.693464 187.426104,139.981464" id="Fill-149" fill="#DC474C"></path>
        <path d="M195.767104,130.703464 C195.065104,130.022464 194.158104,129.591464 193.280104,129.185464 C192.971104,129.042464 192.721104,129.130464 192.541104,129.319464 C192.179104,129.447464 191.927104,130.010464 192.149104,130.426464 C192.642104,131.351464 193.363104,132.161464 194.193104,132.800464 C194.850104,133.306464 195.920104,134.095464 196.563104,133.119464 C197.118104,132.278464 196.363104,131.281464 195.767104,130.703464" id="Fill-150" fill="#DC474C"></path>
        <path d="M231.507104,126.036464 C231.074104,124.872464 229.620104,124.676464 228.583104,124.442464 C227.975104,124.304464 227.259104,124.014464 226.654104,124.300464 C226.203104,124.513464 226.010104,124.916464 225.960104,125.364464 C225.639104,125.617464 225.523104,126.142464 225.890104,126.450464 C226.925104,127.317464 228.446104,127.723464 229.767104,127.859464 C230.851104,127.970464 231.969104,127.280464 231.507104,126.036464" id="Fill-151" fill="#DC474C"></path>
        <path d="M249.141104,137.739464 C248.881104,137.285464 248.338104,137.254464 247.868104,137.192464 C246.741104,137.044464 245.668104,137.251464 244.846104,138.079464 C244.183104,138.748464 243.383104,139.861464 244.008104,140.807464 C244.516104,141.576464 245.672104,141.539464 246.391104,141.134464 L246.640104,140.964464 C246.748104,140.937464 246.854104,140.907464 246.951104,140.875464 C247.895104,140.569464 248.779104,139.908464 249.138104,138.953464 C249.285104,138.562464 249.360104,138.119464 249.141104,137.739464" id="Fill-152" fill="#DC474C"></path>
        <path d="M269.983104,147.414464 C269.643104,146.963464 269.011104,146.926464 268.543104,147.195464 C267.937104,147.543464 267.727104,148.214464 267.734104,148.877464 C267.736104,149.139464 267.762104,149.399464 267.712104,149.659464 C267.642104,150.021464 267.501104,150.318464 267.687104,150.677464 L267.854104,150.896464 L267.865104,150.930464 C268.189104,151.526464 268.907104,151.467464 269.335104,151.022464 C269.795104,150.541464 270.011104,149.766464 270.138104,149.131464 C270.249104,148.584464 270.341104,147.891464 269.983104,147.414464" id="Fill-153" fill="#DC474C"></path>
    </g>
</svg>