<?xml version="1.0" encoding="UTF-8"?>
<svg width="74px" height="68px" viewBox="0 0 74 68" version="1.1" xmlns="http://www.w3.org/2000/svg" xmlns:xlink="http://www.w3.org/1999/xlink">
    <title>Artboard Copy 2</title>
    <g id="Artboard-Copy-2" stroke="none" stroke-width="1" fill="none" fill-rule="evenodd">
        <path d="M63.5059316,62.6380973 C63.5059316,62.6380973 72.0689316,54.8880973 73.2249316,50.0130973 C74.3809316,45.1380973 50.8809316,14.8880973 50.8809316,14.8880973 L37.0059316,0.0130972665 C37.0059316,0.0130972665 27.6559316,3.52909727 18.5809316,18.0210973 C9.50593156,32.5130973 0.755931561,44.5260973 0.755931561,47.7070973 C0.755931561,50.8880973 17.0059316,59.5590973 17.0059316,59.5590973 C17.0059316,59.5590973 13.7559316,61.6380973 13.7559316,62.6380973 C13.7559316,63.6380973 22.8149316,62.6380973 22.8149316,62.6380973 C22.8149316,62.6380973 40.2992081,64.8880973 39.7992081,66.7630973 C39.2992081,68.6380973 63.5059316,62.6380973 63.5059316,62.6380973 Z" id="Fill-195" fill="#ECAD2B"></path>
        <path d="M31.9819316,54.8880973 C31.9819316,54.8880973 5.50593156,47.6380973 6.00593156,45.0130973 C6.50593156,42.3880973 32.6309316,-0.861902734 37.0059316,0.0130972665 C41.3809316,0.888097266 72.2559316,43.9010973 71.5059316,47.7070973 C70.7559316,51.5130973 53.7079316,65.1380973 31.9819316,54.8880973" id="Fill-200" fill="#B34D2E"></path>
        <path d="M22.8619316,31.5470973 C22.8309316,31.4530973 19.2689316,30.6720973 18.9249316,31.5470973 C18.5809316,32.4220973 18.2369316,40.0780973 19.2689316,41.3910973 C20.2999316,42.7030973 25.4869316,44.4350973 25.4869316,44.4350973 L22.8619316,31.5470973" id="Fill-201" fill="#EFB786"></path>
        <path d="M51.4869316,29.0630973 C51.4869316,29.0630973 54.2689316,25.9840973 54.8939316,26.2660973 C55.5189316,26.5470973 58.1749316,32.0610973 58.0499316,34.1790973 C57.9249316,36.2970973 53.9559316,43.4530973 53.9559316,43.4530973 L51.4869316,29.0630973" id="Fill-202" fill="#EFB786"></path>
        <path d="M22.2999316,39.4380973 C22.1899316,39.1560973 21.5029316,38.1560973 21.4869316,37.4840973 C21.4719316,36.8130973 22.8149316,35.6720973 22.8149316,35.5630973 C22.8149316,35.4530973 22.4719316,33.3440973 22.2999316,32.9060973 C22.1279316,32.4690973 20.1899316,32.1880973 20.0029316,32.6720973 C19.8149316,33.1560973 19.6439316,38.8280973 20.4869316,39.7810973 C21.3309316,40.7340973 22.2999316,39.4380973 22.2999316,39.4380973" id="Fill-203" fill="#DA9976"></path>
        <path d="M55.0389316,37.0990973 C55.0389316,37.0990973 55.6439316,35.5570973 55.3939316,34.6410973 C55.1439316,33.7240973 53.6019316,33.3280973 53.5809316,33.2660973 C53.5599316,33.2030973 52.6469316,30.2580973 52.9559316,29.4320973 C53.2649316,28.6070973 54.5809316,28.6620973 54.8729316,29.0990973 C55.1639316,29.5370973 56.6439316,33.1430973 56.6229316,34.8500973 C56.6019316,36.5570973 55.3729316,37.5570973 55.0389316,37.0990973" id="Fill-204" fill="#DA9976"></path>
        <path d="M19.6439316,20.9530973 C19.6439316,20.9530973 23.1439316,39.1410973 23.2059316,41.4530973 C23.2689316,43.7660973 23.7689316,55.6410973 24.8939316,57.0160973 C26.0189316,58.3910973 51.0189316,59.8280973 51.5809316,59.5160973 C52.1439316,59.2030973 51.5809316,54.5780973 51.5809316,54.5780973 C51.5809316,54.5780973 57.1439316,54.8280973 57.0189316,53.8280973 C56.8939316,52.8280973 55.6439316,48.5780973 55.6439316,48.2030973 C55.6439316,47.8280973 51.7689316,18.2030973 52.2059316,16.4530973 C52.6439316,14.7030973 55.6439316,10.5160973 55.6439316,9.51609727 C55.6439316,8.51609727 47.3589316,8.57809727 47.3589316,8.57809727 C47.3589316,8.57809727 49.2059316,6.14109727 49.2059316,5.32809727 C49.2059316,4.51609727 32.6439316,8.20309727 28.7689316,12.2030973 C28.7689316,12.0780973 29.0189316,9.57809727 28.7689316,9.14109727 C28.5189316,8.70309727 18.9659316,17.3890973 19.6439316,20.9530973" id="Fill-205" fill="#833227"></path>
        <path d="M25.7689316,23.3910973 C25.7689316,23.3910973 27.5279316,40.9320973 27.9399316,41.0570973 C28.3519316,41.1820973 49.7689316,36.8490973 50.0599316,36.3910973 C50.3519316,35.9320973 48.8099316,20.5160973 47.6849316,18.9740973 C46.5599316,17.4320973 33.4349316,17.0570973 25.7689316,23.3910973" id="Fill-206" fill="#EFB786"></path>
        <path d="M37.8519316,28.6410973 C37.8519316,28.6410973 37.5189316,37.8910973 37.8519316,38.3070973 C38.1849316,38.7240973 41.4769316,39.5990973 41.8519316,39.4320973 C42.2269316,39.2660973 40.0599316,29.6410973 37.8519316,28.6410973" id="Fill-207" fill="#DA9976"></path>
        <path d="M33.3779316,33.5280973 C33.5649316,34.5640973 33.2829316,35.4820973 32.7479316,35.5790973 C32.2129316,35.6760973 31.6279316,34.9140973 31.4409316,33.8780973 C31.2529316,32.8420973 31.5359316,31.9240973 32.0699316,31.8270973 C32.6059316,31.7310973 33.1909316,32.4920973 33.3779316,33.5280973" id="Fill-208" fill="#0C0E0F"></path>
        <path d="M46.2839316,31.0600973 C46.4709316,32.0960973 46.1889316,33.0140973 45.6539316,33.1100973 C45.1189316,33.2070973 44.5339316,32.4450973 44.3469316,31.4090973 C44.1599316,30.3730973 44.4419316,29.4550973 44.9769316,29.3590973 C45.5119316,29.2620973 46.0969316,30.0230973 46.2839316,31.0600973" id="Fill-209" fill="#0C0E0F"></path>
        <path d="M28.4559316,29.0570973 C28.4559316,29.0570973 33.7059316,27.5990973 35.0389316,27.3070973 C36.3729316,27.0160973 36.1229316,25.4950973 35.6229316,24.6200973 C35.1229316,23.7450973 29.8099316,25.0780973 28.0809316,27.5370973 C27.7269316,27.9950973 28.1109316,29.1530973 28.4559316,29.0570973" id="Fill-210" fill="#833227"></path>
        <path d="M40.9559316,23.3490973 C40.9559316,23.3490973 41.0189316,25.2030973 41.7059316,25.5570973 C42.3939316,25.9110973 48.0599316,25.4120973 48.1229316,25.0990973 C48.1849316,24.7860973 48.1639316,23.8910973 47.8099316,23.4740973 C47.4559316,23.0570973 40.8229316,22.3020973 40.9559316,23.3490973" id="Fill-211" fill="#833227"></path>
        <path d="M30.6119316,36.3910973 C30.6119316,36.3910973 33.6119316,37.6720973 34.8939316,36.3910973 C33.9869316,38.4840973 31.2689316,38.8280973 30.6119316,36.3910973" id="Fill-212" fill="#DA9976"></path>
        <path d="M44.5519316,34.5160973 C44.5519316,34.5160973 47.1119316,34.5470973 47.2999316,32.8590973 C47.6749316,34.7660973 46.2109316,36.7340973 44.5519316,34.5160973" id="Fill-213" fill="#DA9976"></path>
        <path d="M36.4439316,46.2630973 C36.4439316,46.2630973 37.3189316,49.5440973 38.8809316,50.5130973 C40.4439316,51.4820973 43.4439316,52.5130973 44.7249316,51.8570973 C46.0059316,51.2000973 48.1939316,48.9500973 48.7869316,46.5440973 C49.3809316,44.1380973 48.7869316,40.2630973 48.5999316,40.0440973 C48.4119316,39.8250973 36.4439316,46.2630973 36.4439316,46.2630973" id="Fill-214" fill="#B12736"></path>
        <path d="M48.5999316,40.0440973 C48.4119316,39.8250973 36.4439316,46.2630973 36.4439316,46.2630973 C36.4439316,46.2630973 36.5629316,46.7090973 36.7909316,47.3190973 C37.3609316,47.5210973 38.0789316,47.7480973 38.3189316,47.7000973 C38.7349316,47.6170973 39.0269316,46.0510973 39.0269316,46.0510973 C39.0269316,46.0510973 40.7769316,46.5960973 41.1939316,46.2000973 C41.6099316,45.8040973 41.8389316,44.4090973 41.8389316,44.4090973 C41.8389316,44.4090973 43.7349316,44.6170973 44.0479316,44.4090973 C44.3599316,44.2000973 44.5689316,42.9090973 44.5689316,42.9090973 C44.5689316,42.9090973 46.0889316,43.3670973 46.5479316,43.1170973 C47.0059316,42.8670973 47.2139316,41.5750973 47.2139316,41.5750973 C47.2139316,41.5750973 48.1449316,41.9490973 48.5269316,41.8050973 C48.6529316,41.7570973 48.7639316,41.5320973 48.8589316,41.2600973 C48.7659316,40.5840973 48.6609316,40.1160973 48.5999316,40.0440973" id="Fill-215" fill="#FFFFFE"></path>
    </g>
</svg>